<?xml version="1.0" standalone="no"?>
<!DOCTYPE svg PUBLIC "-//W3C//DTD SVG 20010904//EN"
 "http://www.w3.org/TR/2001/REC-SVG-20010904/DTD/svg10.dtd">
<svg version="1.0" xmlns="http://www.w3.org/2000/svg"
 width="260.000000pt" height="260.000000pt" viewBox="0 0 260.000000 260.000000"
 preserveAspectRatio="xMidYMid meet">
<metadata>
Created by potrace 1.14, written by Peter Selinger 2001-2017
</metadata>
<g transform="translate(0.000000,260.000000) scale(0.100000,-0.100000)"
fill="#000000" stroke="none">
<path d="M630 1300 l0 -1300 818 0 c903 0 879 -2 963 63 23 17 56 57 73 87
l31 55 0 1095 0 1095 -22 41 c-34 63 -66 97 -125 129 l-53 30 -842 3 -843 3 0
-1301z m825 498 c98 -99 115 -288 33 -375 -16 -17 -33 -23 -63 -23 -87 0 -163
107 -173 243 -9 120 39 197 121 197 33 0 46 -7 82 -42z m408 22 c120 -94 32
-420 -113 -420 -142 0 -166 266 -35 398 36 35 49 42 82 42 25 0 50 -8 66 -20z
m-775 -256 c137 -57 218 -286 136 -384 -48 -57 -145 -33 -213 53 -90 114 -95
295 -9 332 42 18 41 18 86 -1z m1077 2 c46 -19 65 -61 65 -140 0 -55 -6 -75
-37 -137 -48 -92 -104 -139 -167 -139 -61 0 -92 27 -105 93 -25 121 59 284
165 322 22 8 40 14 42 15 1 0 18 -6 37 -14z m-501 -249 c26 -14 59 -50 95
-104 57 -83 98 -130 189 -215 58 -54 76 -99 70 -170 -6 -56 -30 -94 -79 -123
-32 -18 -54 -20 -324 -21 -169 -1 -305 3 -327 9 -48 13 -107 62 -124 103 -36
86 -5 181 76 241 89 65 127 102 186 179 33 44 75 89 93 101 43 29 95 29 145 0z"/>
<path d="M110 2272 c-26 -12 -39 -28 -49 -58 -13 -38 -13 -44 5 -75 30 -50 55
-59 176 -59 103 0 109 1 138 28 57 50 42 146 -26 172 -45 17 -204 12 -244 -8z"/>
<path d="M135 1843 c-36 -10 -64 -35 -75 -68 -15 -44 -4 -80 32 -110 28 -23
37 -25 143 -25 107 0 115 1 144 26 59 50 46 140 -24 170 -33 13 -175 18 -220
7z"/>
<path d="M152 1401 c-92 -16 -129 -107 -68 -170 25 -26 37 -30 111 -36 45 -4
101 -4 123 0 47 8 88 44 97 85 8 35 -16 89 -47 109 -26 17 -152 23 -216 12z"/>
<path d="M92 935 c-36 -30 -47 -66 -32 -110 18 -54 51 -69 166 -73 120 -5 157
9 180 65 20 46 10 86 -28 118 -28 24 -36 25 -143 25 -106 0 -115 -2 -143 -25z"/>
<path d="M120 513 c-55 -20 -80 -80 -56 -137 21 -50 62 -66 175 -66 107 0 134
9 161 52 28 45 21 94 -20 131 -29 26 -34 27 -138 26 -59 0 -114 -3 -122 -6z"/>
</g>
</svg>
